# xmcd CD database file
#
# Track frame offsets:
#	150
#	20350
#	35490
#	53178
#	73588
#	94193
#	113245
#	127640
#	148170
#	166233
#	185010
#	200775
#
# Disc length: 2993 seconds
#
# Revision: 1
# Processed by: cddbd v1.5.2PL0 Copyright (c) Steve Scherf et al.
# Submitted via: jetAudio 7
#
DISCID=aa0baf0c
DTITLE=猫沢エミ - Chelser girl
DYEAR=1997
DGENRE=JPop
TTITLE0=The End Of The World
TTITLE1=Concorde
TTITLE2=きらいにならないで
TTITLE3=Traffic-Strawberry-Jam
TTITLE4=Alaskaの恋
TTITLE5=Kiss Mark
TTITLE6=Seek It!
TTITLE7=Bath Room
TTITLE8=青い虫
TTITLE9=Robot
TTITLE10=Used Kinoko
TTITLE11=Rontgen
EXTD=YEAR: 1997
EXTT0=
EXTT1=
EXTT2=
EXTT3=
EXTT4=
EXTT5=
EXTT6=
EXTT7=
EXTT8=
EXTT9=
EXTT10=
EXTT11=
PLAYORDER=
